name D:\school\WTK\thesis\model\3dpredictsim\Results\MidTarsalJoint\Fal_s1_bCst_PF_Natali2010_ls150_MT_k300_MTP_T1_spx10_ig23_PFx10_v133.mot
datacolumns 128
datarows 4
range 0.52069777 0.55193963
endheader
time	pelvis_tilt	pelvis_list	pelvis_rotation	pelvis_tx	pelvis_ty	pelvis_tz	hip_flexion_l	hip_adduction_l	hip_rotation_l	hip_flexion_r	hip_adduction_r	hip_rotation_r	knee_angle_l	knee_angle_r	ankle_angle_l	ankle_angle_r	subtalar_angle_l	subtalar_angle_r	mtj_angle_l	mtj_angle_r	mtp_angle_l	mtp_angle_r	lumbar_extension	lumbar_bending	lumbar_rotation	arm_flex_l	arm_add_l	arm_rot_l	arm_flex_r	arm_add_r	arm_rot_r	elbow_flex_l	elbow_flex_r	pro_sup_l	pro_sup_r	glut_med1_l/activation	glut_med2_l/activation	glut_med3_l/activation	glut_min1_l/activation	glut_min2_l/activation	glut_min3_l/activation	semimem_l/activation	semiten_l/activation	bifemlh_l/activation	bifemsh_l/activation	sar_l/activation	add_long_l/activation	add_brev_l/activation	add_mag1_l/activation	add_mag2_l/activation	add_mag3_l/activation	tfl_l/activation	pect_l/activation	grac_l/activation	glut_max1_l/activation	glut_max2_l/activation	glut_max3_l/activation	iliacus_l/activation	psoas_l/activation	quad_fem_l/activation	gem_l/activation	peri_l/activation	rect_fem_l/activation	vas_med_l/activation	vas_int_l/activation	vas_lat_l/activation	med_gas_l/activation	lat_gas_l/activation	soleus_l/activation	tib_post_l/activation	flex_dig_l/activation	flex_hal_l/activation	tib_ant_l/activation	per_brev_l/activation	per_long_l/activation	per_tert_l/activation	ext_dig_l/activation	ext_hal_l/activation	ercspn_l/activation	intobl_l/activation	extobl_l/activation	glut_med1_r/activation	glut_med2_r/activation	glut_med3_r/activation	glut_min1_r/activation	glut_min2_r/activation	glut_min3_r/activation	semimem_r/activation	semiten_r/activation	bifemlh_r/activation	bifemsh_r/activation	sar_r/activation	add_long_r/activation	add_brev_r/activation	add_mag1_r/activation	add_mag2_r/activation	add_mag3_r/activation	tfl_r/activation	pect_r/activation	grac_r/activation	glut_max1_r/activation	glut_max2_r/activation	glut_max3_r/activation	iliacus_r/activation	psoas_r/activation	quad_fem_r/activation	gem_r/activation	peri_r/activation	rect_fem_r/activation	vas_med_r/activation	vas_int_r/activation	vas_lat_r/activation	med_gas_r/activation	lat_gas_r/activation	soleus_r/activation	tib_post_r/activation	flex_dig_r/activation	flex_hal_r/activation	tib_ant_r/activation	per_brev_r/activation	per_long_r/activation	per_tert_r/activation	ext_dig_r/activation	ext_hal_r/activation	ercspn_r/activation	intobl_r/activation	extobl_r/activation	
          0.52069777	         -2.92970037	          0.80243359	         -3.91416228	          0.69252803	          0.93288006	          0.00225730	         28.28002211	          2.25774673	         -0.84535210	        -15.98654090	          0.33331601	          7.14676425	        -10.45005136	         -8.34110499	          6.92348221	          5.31921034	         -4.07723996	         13.26291624	         -0.51805487	          0.08938279	         -1.53488401	          4.85864332	         -1.85872139	          0.40319671	          1.69894958	         -5.01052252	        -13.45676223	          7.07293138	          4.60425170	        -13.45391316	         13.50263255	         17.60040806	         28.78578394	         86.51662706	         86.51662706	          0.05000020	          0.05000020	          0.05867831	          0.05000009	          0.05000013	          0.05000095	          0.11190259	          0.05868045	          0.19474374	          0.05000664	          0.05000092	          0.14790039	          0.18889903	          0.13357827	          0.15373621	          0.13244696	          0.05867496	          0.05015575	          0.08291347	          0.05867850	          0.05867881	          0.11847279	          0.05000008	          0.05000007	          0.18254246	          0.05000040	          0.05000040	          0.05000012	          0.05124956	          0.05571343	          0.05004117	          0.05000003	          0.05000007	          0.05000001	          0.05527706	          0.05006510	          0.05002178	          0.43771147	          0.18608743	          0.20853771	          0.08405350	          0.46723034	          0.14535900	          0.05867845	          0.12095550	          0.10032992	          0.29247911	          0.16373223	          0.09484157	          0.31258209	          0.25708319	          0.15491704	          0.05000147	          0.05000023	          0.05000017	          0.07307187	          0.11157803	          0.05000005	          0.05000005	          0.05000009	          0.05000032	          0.05000030	          0.38828604	          0.05000021	          0.05000020	          0.05867338	          0.05004551	          0.05000102	          0.35859107	          0.68643801	          0.05000023	          0.05000220	          0.08081487	          0.15839823	          0.05000022	          0.05000029	          0.05000021	          0.33522394	          0.39462649	          0.36829213	          0.23416121	          0.19705217	          0.27213725	          0.05000003	          0.21629129	          0.23352227	          0.05000015	          0.05000004	          0.05000017	          0.05000000	          0.05000000	          0.05000003	
          0.53111172	         -2.92564472	          0.85878247	         -4.09142199	          0.70868339	          0.93260742	          0.00204609	         27.78509171	          2.64976139	         -0.70510218	        -15.86639790	          0.11158083	          7.09162747	        -10.50533050	        -10.16148041	          6.49874917	          4.64385027	         -4.34207656	         14.15998825	         -0.50708376	         -0.60306428	         -1.54792767	          6.83652742	         -1.69888389	          0.20177817	          1.76209206	         -5.67836544	        -13.45024326	          6.75105169	          4.37221352	        -13.46431073	         13.83695219	         17.34001732	         29.62467855	         86.51662706	         86.51662706	          0.05867828	          0.05867830	          0.05000009	          0.05867837	          0.05867834	          0.05867807	          0.09905567	          0.05000192	          0.17460893	          0.05000008	          0.05000020	          0.17991112	          0.35116463	          0.11382278	          0.19553701	          0.14066734	          0.05000016	          0.08974182	          0.07065119	          0.05000028	          0.05000048	          0.16433920	          0.08049724	          0.05001476	          0.42225928	          0.21931474	          0.09969307	          0.05868561	          0.09546530	          0.09956733	          0.07517278	          0.06101179	          0.05470366	          0.05612463	          0.05000005	          0.06194254	          0.05000059	          0.50401650	          0.15856594	          0.17769636	          0.11341085	          0.48654891	          0.12386105	          0.05000014	          0.10306665	          0.08549152	          0.24922260	          0.13951688	          0.08081489	          0.26635246	          0.21906162	          0.13200546	          0.05000070	          0.05000014	          0.05000015	          0.06226484	          0.09507617	          0.09095849	          0.10405857	          0.05000428	          0.05000540	          0.05000069	          0.33086024	          0.05868731	          0.05000508	          0.05000118	          0.05000056	          0.05000066	          0.30555685	          0.62953202	          0.05000023	          0.05000069	          0.06886286	          0.13711048	          0.09959617	          0.05000141	          0.05000649	          0.28564560	          0.33626275	          0.31382314	          0.19952987	          0.16790929	          0.23188954	          0.05000001	          0.18430279	          0.21962777	          0.05000013	          0.05000002	          0.05000010	          0.05468282	          0.05766734	          0.08134299	
          0.54152568	         -2.91752119	          0.92796420	         -4.23760154	          0.72504628	          0.93230100	          0.00183338	         27.26163558	          2.99770875	         -0.53075817	        -15.64718446	         -0.10400579	          7.02887915	        -11.04769841	        -12.14726397	          5.78634306	          3.81721377	         -4.55343763	         15.01107794	         -0.53849041	         -1.33657027	         -1.53420581	          8.91456935	         -1.52774402	         -0.02241077	          1.81793759	         -6.33965624	        -13.45368298	          6.47221939	          4.07669452	        -13.47815306	         14.12128311	         17.07674573	         30.46129938	         86.51662706	         86.51662706	          0.05000001	          0.05000004	          0.12455100	          0.05000008	          0.05000006	          0.05000006	          0.08440617	          0.05048925	          0.14878499	          0.08081524	          0.06886311	          0.15330308	          0.32214642	          0.37990205	          0.26067845	          0.14830347	          0.05000024	          0.07647338	          0.17088901	          0.07877722	          0.11161804	          0.16039311	          0.06884700	          0.06886287	          0.55080383	          0.18687897	          0.08494889	          0.05000629	          0.08134639	          0.08484175	          0.06405505	          0.06886284	          0.06886290	          0.06886284	          0.05867838	          0.05278160	          0.05867883	          0.42947459	          0.13511467	          0.22659960	          0.09663784	          0.47971666	          0.14548717	          0.05000000	          0.08782349	          0.07284765	          0.21236355	          0.11888289	          0.06886271	          0.22696000	          0.18666329	          0.11248239	          0.05004840	          0.05000760	          0.05867829	          0.05305613	          0.08101485	          0.16127282	          0.13333883	          0.10812622	          0.05869870	          0.11551234	          0.28192749	          0.05000801	          0.05867862	          0.05868243	          0.05868187	          0.05868261	          0.26036619	          0.58668660	          0.05867939	          0.05867959	          0.05867839	          0.11683243	          0.10394418	          0.13939868	          0.09813180	          0.24339971	          0.28653078	          0.26740989	          0.17002021	          0.14307627	          0.19759407	          0.05524625	          0.15704522	          0.21159776	          0.05000013	          0.08375059	          0.05000053	          0.07189715	          0.06886282	          0.06931272	
          0.55193963	         -2.90551296	          1.02328042	         -4.35309466	          0.74153069	          0.93193078	          0.00164928	         26.69477696	          3.25315959	         -0.31902625	        -15.33321343	         -0.31846608	          6.95613852	        -11.75328252	        -14.28440305	          4.95377633	          2.88856810	         -4.76171792	         15.77673026	         -0.55693935	         -2.07107198	         -1.46512939	         10.82978578	         -1.35005222	         -0.28339290	          1.86296343	         -6.97780790	        -13.47709980	          6.26120921	          3.73340126	        -13.48751349	         14.35785288	         16.79648617	         31.28967025	         86.51662706	         86.51662706	          0.31278931	          0.33733940	          0.41348994	          0.43928439	          0.43183285	          0.37200626	          0.08344820	          0.07492017	          0.12901372	          0.06886306	          0.05867862	          0.13063017	          0.27450233	          0.32371606	          0.22212535	          0.18225240	          0.05000035	          0.06516456	          0.14561536	          0.18448252	          0.18374033	          0.19534468	          0.05867828	          0.05867834	          0.46934207	          0.15924036	          0.16846268	          0.05000007	          0.08220774	          0.11147134	          0.05458820	          0.05867830	          0.05867836	          0.05867829	          0.05000012	          0.05000028	          0.05000063	          0.60289299	          0.32592278	          0.19308642	          0.46681119	          0.61573723	          0.33395025	          0.07276361	          0.09228632	          0.06207377	          0.24209508	          0.10130058	          0.05867819	          0.30943455	          0.15905657	          0.09584670	          0.05000127	          0.05000014	          0.05000012	          0.05000030	          0.06903328	          0.15058047	          0.11361871	          0.09213485	          0.05001766	          0.09842861	          0.34580792	          0.06896153	          0.05000067	          0.05000381	          0.05000320	          0.05000377	          0.23452577	          0.56514180	          0.05000095	          0.05000116	          0.05000010	          0.09955339	          0.08857127	          0.11878218	          0.08361851	          0.20740182	          0.24415398	          0.22786099	          0.14487491	          0.12191597	          0.16837077	          0.12532282	          0.18449108	          0.18030338	          0.18119831	          0.16867070	          0.08078817	          0.09130159	          0.05867827	          0.05906164	
